<svg aria-roledescription="er" role="graphics-document document" viewBox="0 0 141.5631103515625 338.03125" height="338.03125" xmlns="http://www.w3.org/2000/svg" width="141.5631103515625" id="tmpMermaidElement"><style>#tmpMermaidElement {background: white;}#tmpMermaidElement{font-family:"trebuchet ms",verdana,arial,sans-serif;font-size:16px;fill:#333;}#tmpMermaidElement .error-icon{fill:#552222;}#tmpMermaidElement .error-text{fill:#552222;stroke:#552222;}#tmpMermaidElement .edge-thickness-normal{stroke-width:2px;}#tmpMermaidElement .edge-thickness-thick{stroke-width:3.5px;}#tmpMermaidElement .edge-pattern-solid{stroke-dasharray:0;}#tmpMermaidElement .edge-pattern-dashed{stroke-dasharray:3;}#tmpMermaidElement .edge-pattern-dotted{stroke-dasharray:2;}#tmpMermaidElement .marker{fill:#333333;stroke:#333333;}#tmpMermaidElement .marker.cross{stroke:#333333;}#tmpMermaidElement svg{font-family:"trebuchet ms",verdana,arial,sans-serif;font-size:16px;}#tmpMermaidElement .entityBox{fill:#ECECFF;stroke:#9370DB;}#tmpMermaidElement .attributeBoxOdd{fill:#ffffff;stroke:#9370DB;}#tmpMermaidElement .attributeBoxEven{fill:#f2f2f2;stroke:#9370DB;}#tmpMermaidElement .relationshipLabelBox{fill:hsl(80, 100%, 96.2745098039%);opacity:0.7;background-color:hsl(80, 100%, 96.2745098039%);}#tmpMermaidElement .relationshipLabelBox rect{opacity:0.5;}#tmpMermaidElement .relationshipLine{stroke:#333333;}#tmpMermaidElement .entityTitleText{text-anchor:middle;font-size:18px;fill:#333;}#tmpMermaidElement :root{--mermaid-font-family:"trebuchet ms",verdana,arial,sans-serif;}</style><g></g><defs><marker orient="auto" markerHeight="18" markerWidth="18" refY="9" refX="0" id="ONLY_ONE_START"><path d="M9,0 L9,18 M15,0 L15,18" fill="none" stroke="gray"></path></marker></defs><defs><marker orient="auto" markerHeight="18" markerWidth="18" refY="9" refX="18" id="ONLY_ONE_END"><path d="M3,0 L3,18 M9,0 L9,18" fill="none" stroke="gray"></path></marker></defs><defs><marker orient="auto" markerHeight="18" markerWidth="30" refY="9" refX="0" id="ZERO_OR_ONE_START"><circle r="6" cy="9" cx="21" fill="white" stroke="gray"></circle><path d="M9,0 L9,18" fill="none" stroke="gray"></path></marker></defs><defs><marker orient="auto" markerHeight="18" markerWidth="30" refY="9" refX="30" id="ZERO_OR_ONE_END"><circle r="6" cy="9" cx="9" fill="white" stroke="gray"></circle><path d="M21,0 L21,18" fill="none" stroke="gray"></path></marker></defs><defs><marker orient="auto" markerHeight="36" markerWidth="45" refY="18" refX="18" id="ONE_OR_MORE_START"><path d="M0,18 Q 18,0 36,18 Q 18,36 0,18 M42,9 L42,27" fill="none" stroke="gray"></path></marker></defs><defs><marker orient="auto" markerHeight="36" markerWidth="45" refY="18" refX="27" id="ONE_OR_MORE_END"><path d="M3,9 L3,27 M9,18 Q27,0 45,18 Q27,36 9,18" fill="none" stroke="gray"></path></marker></defs><defs><marker orient="auto" markerHeight="36" markerWidth="57" refY="18" refX="18" id="ZERO_OR_MORE_START"><circle r="6" cy="18" cx="48" fill="white" stroke="gray"></circle><path d="M0,18 Q18,0 36,18 Q18,36 0,18" fill="none" stroke="gray"></path></marker></defs><defs><marker orient="auto" markerHeight="36" markerWidth="57" refY="18" refX="39" id="ZERO_OR_MORE_END"><circle r="6" cy="18" cx="9" fill="white" stroke="gray"></circle><path d="M21,18 Q39,0 57,18 Q39,36 21,18" fill="none" stroke="gray"></path></marker></defs><path style="stroke: gray; fill: none;" marker-start="url(#ONLY_ONE_START)" marker-end="url(#ZERO_OR_MORE_END)" d="M70.782,95.016L70.782,103.349C70.782,111.682,70.782,128.349,70.782,145.016C70.782,161.682,70.782,178.349,70.782,186.682L70.782,195.016" class="er relationshipLine"></path><g transform="translate(20,20 )" id="entity-CATEGORY-4496cc9e-da1f-5994-ab05-87aa395a773d"><rect height="75.015625" width="101.5631103515625" y="0" x="0" class="er entityBox"></rect><text style="dominant-baseline: middle; text-anchor: middle; font-size: 12px;" transform="translate(50.78155517578125,13.5078125)" y="0" x="0" id="text-entity-CATEGORY-4496cc9e-da1f-5994-ab05-87aa395a773d" class="er entityLabel">CATEGORY</text><rect height="24" width="37.4693603515625" y="27.015625" x="0" class="er attributeBoxOdd"></rect><text style="dominant-baseline: middle; font-size: 10.2px;" transform="translate(5,39.015625)" y="0" x="0" id="text-entity-CATEGORY-4496cc9e-da1f-5994-ab05-87aa395a773d-attr-1-type" class="er entityLabel">int</text><rect height="24" width="64.09375" y="27.015625" x="37.4693603515625" class="er attributeBoxOdd"></rect><text style="dominant-baseline: middle; font-size: 10.2px;" transform="translate(42.4693603515625,39.015625)" y="0" x="0" id="text-entity-CATEGORY-4496cc9e-da1f-5994-ab05-87aa395a773d-attr-1-name" class="er entityLabel">category_id</text><rect height="24" width="37.4693603515625" y="51.015625" x="0" class="er attributeBoxEven"></rect><text style="dominant-baseline: middle; font-size: 10.2px;" transform="translate(5,63.015625)" y="0" x="0" id="text-entity-CATEGORY-4496cc9e-da1f-5994-ab05-87aa395a773d-attr-2-type" class="er entityLabel">string</text><rect height="24" width="64.09375" y="51.015625" x="37.4693603515625" class="er attributeBoxEven"></rect><text style="dominant-baseline: middle; font-size: 10.2px;" transform="translate(42.4693603515625,63.015625)" y="0" x="0" id="text-entity-CATEGORY-4496cc9e-da1f-5994-ab05-87aa395a773d-attr-2-name" class="er entityLabel">name</text></g><g transform="translate(20,195.015625 )" id="entity-STORY-1c115295-ed99-54a5-a60f-58752064ed12"><rect height="123.015625" width="101.5631103515625" y="0" x="0" class="er entityBox"></rect><text style="dominant-baseline: middle; text-anchor: middle; font-size: 12px;" transform="translate(50.78155517578125,13.5078125)" y="0" x="0" id="text-entity-STORY-1c115295-ed99-54a5-a60f-58752064ed12" class="er entityLabel">STORY</text><rect height="24" width="37.4693603515625" y="27.015625" x="0" class="er attributeBoxOdd"></rect><text style="dominant-baseline: middle; font-size: 10.2px;" transform="translate(5,39.015625)" y="0" x="0" id="text-entity-STORY-1c115295-ed99-54a5-a60f-58752064ed12-attr-1-type" class="er entityLabel">int</text><rect height="24" width="64.09375" y="27.015625" x="37.4693603515625" class="er attributeBoxOdd"></rect><text style="dominant-baseline: middle; font-size: 10.2px;" transform="translate(42.4693603515625,39.015625)" y="0" x="0" id="text-entity-STORY-1c115295-ed99-54a5-a60f-58752064ed12-attr-1-name" class="er entityLabel">story_id</text><rect height="24" width="37.4693603515625" y="51.015625" x="0" class="er attributeBoxEven"></rect><text style="dominant-baseline: middle; font-size: 10.2px;" transform="translate(5,63.015625)" y="0" x="0" id="text-entity-STORY-1c115295-ed99-54a5-a60f-58752064ed12-attr-2-type" class="er entityLabel">string</text><rect height="24" width="64.09375" y="51.015625" x="37.4693603515625" class="er attributeBoxEven"></rect><text style="dominant-baseline: middle; font-size: 10.2px;" transform="translate(42.4693603515625,63.015625)" y="0" x="0" id="text-entity-STORY-1c115295-ed99-54a5-a60f-58752064ed12-attr-2-name" class="er entityLabel">title</text><rect height="24" width="37.4693603515625" y="75.015625" x="0" class="er attributeBoxOdd"></rect><text style="dominant-baseline: middle; font-size: 10.2px;" transform="translate(5,87.015625)" y="0" x="0" id="text-entity-STORY-1c115295-ed99-54a5-a60f-58752064ed12-attr-3-type" class="er entityLabel">text</text><rect height="24" width="64.09375" y="75.015625" x="37.4693603515625" class="er attributeBoxOdd"></rect><text style="dominant-baseline: middle; font-size: 10.2px;" transform="translate(42.4693603515625,87.015625)" y="0" x="0" id="text-entity-STORY-1c115295-ed99-54a5-a60f-58752064ed12-attr-3-name" class="er entityLabel">content</text><rect height="24" width="37.4693603515625" y="99.015625" x="0" class="er attributeBoxEven"></rect><text style="dominant-baseline: middle; font-size: 10.2px;" transform="translate(5,111.015625)" y="0" x="0" id="text-entity-STORY-1c115295-ed99-54a5-a60f-58752064ed12-attr-4-type" class="er entityLabel">int</text><rect height="24" width="64.09375" y="99.015625" x="37.4693603515625" class="er attributeBoxEven"></rect><text style="dominant-baseline: middle; font-size: 10.2px;" transform="translate(42.4693603515625,111.015625)" y="0" x="0" id="text-entity-STORY-1c115295-ed99-54a5-a60f-58752064ed12-attr-4-name" class="er entityLabel">category_id</text></g><rect height="17.015625" width="57.837890625" y="136.50819396972656" x="41.86305236816406" class="er relationshipLabelBox"></rect><text style="text-anchor: middle; dominant-baseline: middle; font-size: 12px;" y="145.01600646972656" x="70.78199768066406" id="rel2" class="er relationshipLabel">categories</text></svg>